<mxfile host="app.diagrams.net" modified="2024-03-04T06:54:12.185Z" agent="Mozilla/5.0 (Windows NT 10.0; Win64; x64) AppleWebKit/537.36 (KHTML, like Gecko) Chrome/122.0.0.0 Safari/537.36" version="23.1.5" etag="A-99XANVyIsA6R7doB6k" type="github">
  <diagram name="Page-1" id="dMyVHb7BDZHTTjoq_tT2">
    <mxGraphModel>
      <root>
        <mxCell id="0" />
        <mxCell id="1" parent="0" />
      </root>
    </mxGraphModel>
  </diagram>
</mxfile>
